<svg width="393" height="387" viewBox="0 0 393 387" fill="none" xmlns="http://www.w3.org/2000/svg">
<g clip-path="url(#clip0_5_39)">
<path d="M223.804 0H389.921C391.578 0 392.921 1.34315 392.921 3V176.002C392.921 177.659 391.578 179.002 389.921 179.002H223.804C222.147 179.002 220.804 177.659 220.804 176.002V3C220.804 1.34315 222.147 0 223.804 0Z" fill="white" fill-opacity="0.05"/>
<path d="M312.188 21.7705H369.763C371.42 21.7705 372.763 23.1137 372.763 24.7705V30.8652C372.763 32.5221 371.42 33.8652 369.763 33.8652H312.188C310.531 33.8652 309.188 32.5221 309.188 30.8652V24.7705C309.188 23.1137 310.531 21.7705 312.188 21.7705Z" fill="white" fill-opacity="0.05"/>
<path d="M355.03 49.1853H369.763C371.42 49.1853 372.763 50.5284 372.763 52.1853V58.28C372.763 59.9369 371.42 61.28 369.763 61.28H355.03C353.373 61.28 352.03 59.9369 352.03 58.28V52.1853C352.03 50.5284 353.373 49.1853 355.03 49.1853Z" fill="white" fill-opacity="0.05"/>
<path d="M355.03 73.3748H369.763C371.42 73.3748 372.763 74.7179 372.763 76.3748V82.4695C372.763 84.1263 371.42 85.4695 369.763 85.4695H355.03C353.373 85.4695 352.03 84.1263 352.03 82.4695V76.3748C352.03 74.7179 353.373 73.3748 355.03 73.3748Z" fill="white" fill-opacity="0.05"/>
<path d="M355.03 97.5642H369.763C371.42 97.5642 372.763 98.9074 372.763 100.564V106.659C372.763 108.316 371.42 109.659 369.763 109.659H355.03C353.373 109.659 352.03 108.316 352.03 106.659V100.564C352.03 98.9074 353.373 97.5642 355.03 97.5642Z" fill="white" fill-opacity="0.05"/>
<path d="M355.03 121.754H369.763C371.42 121.754 372.763 123.097 372.763 124.754V130.849C372.763 132.505 371.42 133.849 369.763 133.849H355.03C353.373 133.849 352.03 132.505 352.03 130.849V124.754C352.03 123.097 353.373 121.754 355.03 121.754Z" fill="white" fill-opacity="0.05"/>
<path d="M355.03 145.943H369.763C371.42 145.943 372.763 147.286 372.763 148.943V155.038C372.763 156.694 371.42 158.038 369.763 158.038H355.03C353.373 158.038 352.03 156.694 352.03 155.038V148.943C352.03 147.286 353.373 145.943 355.03 145.943Z" fill="white" fill-opacity="0.05"/>
<path d="M293.572 49.1853H334.221C335.878 49.1853 337.221 50.5284 337.221 52.1853V58.28C337.221 59.9369 335.878 61.28 334.221 61.28H293.572C291.915 61.28 290.572 59.9369 290.572 58.28V52.1853C290.572 50.5284 291.915 49.1853 293.572 49.1853Z" fill="white" fill-opacity="0.05"/>
<path d="M287.378 73.3748H334.099C335.756 73.3748 337.099 74.7179 337.099 76.3748V82.4695C337.099 84.1263 335.756 85.4695 334.099 85.4695H287.378C285.722 85.4695 284.378 84.1263 284.378 82.4695V76.3748C284.378 74.7179 285.722 73.3748 287.378 73.3748Z" fill="white" fill-opacity="0.05"/>
<path d="M305.986 97.5642H334.099C335.756 97.5642 337.099 98.9074 337.099 100.564V106.659C337.099 108.316 335.756 109.659 334.099 109.659H305.986C304.329 109.659 302.986 108.316 302.986 106.659V100.564C302.986 98.9074 304.329 97.5642 305.986 97.5642Z" fill="white" fill-opacity="0.05"/>
<path d="M287.378 121.754H334.099C335.756 121.754 337.099 123.097 337.099 124.754V130.849C337.099 132.505 335.756 133.849 334.099 133.849H287.378C285.722 133.849 284.378 132.505 284.378 130.849V124.754C284.378 123.097 285.722 121.754 287.378 121.754Z" fill="white" fill-opacity="0.05"/>
<path d="M293.572 145.943H334.221C335.878 145.943 337.221 147.286 337.221 148.943V155.038C337.221 156.694 335.878 158.038 334.221 158.038H293.572C291.915 158.038 290.572 156.694 290.572 155.038V148.943C290.572 147.286 291.915 145.943 293.572 145.943Z" fill="white" fill-opacity="0.05"/>
<path d="M243.962 49.1853H272.763C274.42 49.1853 275.763 50.5284 275.763 52.1853V58.28C275.763 59.9369 274.42 61.28 272.763 61.28H243.962C242.305 61.28 240.962 59.9369 240.962 58.28V52.1853C240.962 50.5284 242.305 49.1853 243.962 49.1853Z" fill="white" fill-opacity="0.05"/>
<path d="M243.961 73.3748H266.647C268.304 73.3748 269.647 74.7179 269.647 76.3748V82.4695C269.647 84.1263 268.304 85.4695 266.647 85.4695H243.961C242.304 85.4695 240.961 84.1263 240.961 82.4695V76.3748C240.961 74.7179 242.304 73.3748 243.961 73.3748Z" fill="white" fill-opacity="0.05"/>
<path d="M243.962 97.5642H285.255C286.912 97.5642 288.255 98.9074 288.255 100.564V106.659C288.255 108.316 286.912 109.659 285.255 109.659H243.962C242.305 109.659 240.962 108.316 240.962 106.659V100.564C240.962 98.9074 242.305 97.5642 243.962 97.5642Z" fill="white" fill-opacity="0.05"/>
<path d="M243.961 121.754H266.647C268.304 121.754 269.647 123.097 269.647 124.754V130.849C269.647 132.505 268.304 133.849 266.647 133.849H243.961C242.304 133.849 240.961 132.505 240.961 130.849V124.754C240.961 123.097 242.304 121.754 243.961 121.754Z" fill="white" fill-opacity="0.05"/>
<path d="M243.962 145.943H272.763C274.42 145.943 275.763 147.286 275.763 148.943V155.038C275.763 156.694 274.42 158.038 272.763 158.038H243.962C242.305 158.038 240.962 156.694 240.962 155.038V148.943C240.962 147.286 242.305 145.943 243.962 145.943Z" fill="white" fill-opacity="0.05"/>
<path d="M207.523 234.638H373.64C375.296 234.638 376.64 235.981 376.64 237.638V383.225C376.64 384.882 375.296 386.225 373.64 386.225H207.523C205.866 386.225 204.523 384.882 204.523 383.225V237.638C204.523 235.981 205.866 234.638 207.523 234.638Z" fill="white" fill-opacity="0.05"/>
<path d="M273.423 256.409H353.482C355.139 256.409 356.482 257.752 356.482 259.409V265.504C356.482 267.16 355.139 268.504 353.482 268.504H273.423C271.766 268.504 270.423 267.16 270.423 265.504V259.409C270.423 257.752 271.766 256.409 273.423 256.409Z" fill="white" fill-opacity="0.05"/>
<path d="M338.749 283.823H353.482C355.139 283.823 356.482 285.166 356.482 286.823V292.918C356.482 294.575 355.139 295.918 353.482 295.918H338.749C337.092 295.918 335.749 294.575 335.749 292.918V286.823C335.749 285.166 337.092 283.823 338.749 283.823Z" fill="white" fill-opacity="0.05"/>
<path d="M338.749 308.013H353.482C355.139 308.013 356.482 309.356 356.482 311.013V317.108C356.482 318.764 355.139 320.108 353.482 320.108H338.749C337.092 320.108 335.749 318.764 335.749 317.108V311.013C335.749 309.356 337.092 308.013 338.749 308.013Z" fill="white" fill-opacity="0.05"/>
<path d="M338.749 332.202H353.482C355.139 332.202 356.482 333.545 356.482 335.202V341.297C356.482 342.953 355.139 344.297 353.482 344.297H338.749C337.092 344.297 335.749 342.953 335.749 341.297V335.202C335.749 333.545 337.092 332.202 338.749 332.202Z" fill="white" fill-opacity="0.05"/>
<path d="M338.749 356.392H353.482C355.139 356.392 356.482 357.735 356.482 359.392V365.487C356.482 367.144 355.139 368.487 353.482 368.487H338.749C337.092 368.487 335.749 367.144 335.749 365.487V359.392C335.749 357.735 337.092 356.392 338.749 356.392Z" fill="white" fill-opacity="0.05"/>
<path d="M277.291 283.823H317.94C319.597 283.823 320.94 285.166 320.94 286.823V292.918C320.94 294.575 319.597 295.918 317.94 295.918H277.291C275.634 295.918 274.291 294.575 274.291 292.918V286.823C274.291 285.166 275.634 283.823 277.291 283.823Z" fill="white" fill-opacity="0.05"/>
<path d="M271.097 308.013H317.818C319.475 308.013 320.818 309.356 320.818 311.013V317.108C320.818 318.764 319.475 320.108 317.818 320.108H271.097C269.44 320.108 268.097 318.764 268.097 317.108V311.013C268.097 309.356 269.44 308.013 271.097 308.013Z" fill="white" fill-opacity="0.05"/>
<path d="M289.704 332.202H317.818C319.475 332.202 320.818 333.545 320.818 335.202V341.297C320.818 342.953 319.475 344.297 317.818 344.297H289.704C288.047 344.297 286.704 342.953 286.704 341.297V335.202C286.704 333.545 288.047 332.202 289.704 332.202Z" fill="white" fill-opacity="0.05"/>
<path d="M271.097 356.392H317.818C319.475 356.392 320.818 357.735 320.818 359.392V365.487C320.818 367.144 319.475 368.487 317.818 368.487H271.097C269.44 368.487 268.097 367.144 268.097 365.487V359.392C268.097 357.735 269.44 356.392 271.097 356.392Z" fill="white" fill-opacity="0.05"/>
<path d="M227.68 283.823H256.481C258.138 283.823 259.481 285.166 259.481 286.823V292.918C259.481 294.575 258.138 295.918 256.481 295.918H227.68C226.023 295.918 224.68 294.575 224.68 292.918V286.823C224.68 285.166 226.023 283.823 227.68 283.823Z" fill="white" fill-opacity="0.05"/>
<path d="M227.68 308.013H250.366C252.023 308.013 253.366 309.356 253.366 311.013V317.108C253.366 318.764 252.023 320.108 250.366 320.108H227.68C226.023 320.108 224.68 318.764 224.68 317.108V311.013C224.68 309.356 226.023 308.013 227.68 308.013Z" fill="white" fill-opacity="0.05"/>
<path d="M227.68 332.202H268.973C270.63 332.202 271.973 333.545 271.973 335.202V341.297C271.973 342.953 270.63 344.297 268.973 344.297H227.68C226.023 344.297 224.68 342.953 224.68 341.297V335.202C224.68 333.545 226.023 332.202 227.68 332.202Z" fill="white" fill-opacity="0.05"/>
<path d="M227.68 356.392H250.366C252.023 356.392 253.366 357.735 253.366 359.392V365.487C253.366 367.144 252.023 368.487 250.366 368.487H227.68C226.023 368.487 224.68 367.144 224.68 365.487V359.392C224.68 357.735 226.023 356.392 227.68 356.392Z" fill="white" fill-opacity="0.05"/>
<path d="M169.734 53H3.61737C1.96052 53 0.617371 54.3431 0.617371 56V276.575C0.617371 278.232 1.96052 279.575 3.61737 279.575H169.734C171.391 279.575 172.734 278.232 172.734 276.575V56C172.734 54.3431 171.391 53 169.734 53Z" fill="white" fill-opacity="0.05"/>
<path d="M170.117 316H4C2.34315 316 1 317.343 1 319V539.575C1 541.232 2.34315 542.575 4 542.575H170.117C171.774 542.575 173.117 541.232 173.117 539.575V319C173.117 317.343 171.774 316 170.117 316Z" fill="white" fill-opacity="0.05"/>
<path d="M61.1924 74.771H23.7754C22.1185 74.771 20.7754 76.1141 20.7754 77.771V83.8657C20.7754 85.5226 22.1185 86.8657 23.7754 86.8657H61.1924C62.8492 86.8657 64.1924 85.5226 64.1924 83.8657V77.771C64.1924 76.1141 62.8492 74.771 61.1924 74.771Z" fill="white" fill-opacity="0.05"/>
<path d="M61.575 337.771H24.158C22.5011 337.771 21.158 339.114 21.158 340.771V346.866C21.158 348.523 22.5011 349.866 24.158 349.866H61.575C63.2318 349.866 64.575 348.523 64.575 346.866V340.771C64.575 339.114 63.2318 337.771 61.575 337.771Z" fill="white" fill-opacity="0.05"/>
<path d="M38.5081 150.564H23.7754C22.1185 150.564 20.7754 151.907 20.7754 153.564V159.659C20.7754 161.316 22.1185 162.659 23.7754 162.659H38.5081C40.165 162.659 41.5081 161.316 41.5081 159.659V153.564C41.5081 151.907 40.165 150.564 38.5081 150.564Z" fill="white" fill-opacity="0.05"/>
<path d="M99.9662 150.564H59.3174C57.6605 150.564 56.3174 151.907 56.3174 153.564V159.659C56.3174 161.316 57.6605 162.659 59.3174 162.659H99.9662C101.623 162.659 102.966 161.316 102.966 159.659V153.564C102.966 151.907 101.623 150.564 99.9662 150.564Z" fill="white" fill-opacity="0.05"/>
<path d="M149.577 150.564H120.775C119.119 150.564 117.775 151.907 117.775 153.564V159.659C117.775 161.316 119.119 162.659 120.775 162.659H149.577C151.234 162.659 152.577 161.316 152.577 159.659V153.564C152.577 151.907 151.234 150.564 149.577 150.564Z" fill="white" fill-opacity="0.05"/>
<path d="M38.5081 174.754H23.7754C22.1185 174.754 20.7754 176.097 20.7754 177.754V183.849C20.7754 185.505 22.1185 186.849 23.7754 186.849H38.5081C40.165 186.849 41.5081 185.505 41.5081 183.849V177.754C41.5081 176.097 40.165 174.754 38.5081 174.754Z" fill="white" fill-opacity="0.05"/>
<path d="M106.16 174.754H59.4394C57.7825 174.754 56.4394 176.097 56.4394 177.754V183.849C56.4394 185.505 57.7825 186.849 59.4394 186.849H106.16C107.817 186.849 109.16 185.505 109.16 183.849V177.754C109.16 176.097 107.817 174.754 106.16 174.754Z" fill="white" fill-opacity="0.05"/>
<path d="M149.577 174.754H126.89C125.233 174.754 123.89 176.097 123.89 177.754V183.849C123.89 185.505 125.233 186.849 126.89 186.849H149.577C151.233 186.849 152.577 185.505 152.577 183.849V177.754C152.577 176.097 151.233 174.754 149.577 174.754Z" fill="white" fill-opacity="0.05"/>
<path d="M38.5081 223.133H23.7754C22.1185 223.133 20.7754 224.476 20.7754 226.133V232.228C20.7754 233.885 22.1185 235.228 23.7754 235.228H38.5081C40.165 235.228 41.5081 233.885 41.5081 232.228V226.133C41.5081 224.476 40.165 223.133 38.5081 223.133Z" fill="white" fill-opacity="0.05"/>
<path d="M106.16 223.133H59.4394C57.7825 223.133 56.4394 224.476 56.4394 226.133V232.228C56.4394 233.885 57.7825 235.228 59.4394 235.228H106.16C107.817 235.228 109.16 233.885 109.16 232.228V226.133C109.16 224.476 107.817 223.133 106.16 223.133Z" fill="white" fill-opacity="0.05"/>
<path d="M149.577 223.133H126.89C125.233 223.133 123.89 224.476 123.89 226.133V232.228C123.89 233.885 125.233 235.228 126.89 235.228H149.577C151.233 235.228 152.577 233.885 152.577 232.228V226.133C152.577 224.476 151.233 223.133 149.577 223.133Z" fill="white" fill-opacity="0.05"/>
<path d="M38.5081 198.943H23.7754C22.1185 198.943 20.7754 200.286 20.7754 201.943V208.038C20.7754 209.694 22.1185 211.038 23.7754 211.038H38.5081C40.165 211.038 41.5081 209.694 41.5081 208.038V201.943C41.5081 200.286 40.165 198.943 38.5081 198.943Z" fill="white" fill-opacity="0.05"/>
<path d="M87.5528 198.943H59.4394C57.7825 198.943 56.4394 200.286 56.4394 201.943V208.038C56.4394 209.694 57.7825 211.038 59.4394 211.038H87.5528C89.2096 211.038 90.5528 209.694 90.5528 208.038V201.943C90.5528 200.286 89.2096 198.943 87.5528 198.943Z" fill="white" fill-opacity="0.05"/>
<path d="M149.577 198.943H108.283C106.627 198.943 105.283 200.286 105.283 201.943V208.038C105.283 209.694 106.627 211.038 108.283 211.038H149.577C151.234 211.038 152.577 209.694 152.577 208.038V201.943C152.577 200.286 151.234 198.943 149.577 198.943Z" fill="white" fill-opacity="0.05"/>
<path d="M38.5081 126.375H23.7754C22.1185 126.375 20.7754 127.718 20.7754 129.375V135.47C20.7754 137.127 22.1185 138.47 23.7754 138.47H38.5081C40.165 138.47 41.5081 137.127 41.5081 135.47V129.375C41.5081 127.718 40.165 126.375 38.5081 126.375Z" fill="white" fill-opacity="0.05"/>
<path d="M106.16 126.375H59.4394C57.7825 126.375 56.4394 127.718 56.4394 129.375V135.47C56.4394 137.127 57.7825 138.47 59.4394 138.47H106.16C107.817 138.47 109.16 137.127 109.16 135.47V129.375C109.16 127.718 107.817 126.375 106.16 126.375Z" fill="white" fill-opacity="0.05"/>
<path d="M149.577 126.375H126.89C125.233 126.375 123.89 127.718 123.89 129.375V135.47C123.89 137.127 125.233 138.47 126.89 138.47H149.577C151.233 138.47 152.577 137.127 152.577 135.47V129.375C152.577 127.718 151.233 126.375 149.577 126.375Z" fill="white" fill-opacity="0.05"/>
<path d="M38.5081 102.185H23.7754C22.1185 102.185 20.7754 103.528 20.7754 105.185V111.28C20.7754 112.937 22.1185 114.28 23.7754 114.28H38.5081C40.165 114.28 41.5081 112.937 41.5081 111.28V105.185C41.5081 103.528 40.165 102.185 38.5081 102.185Z" fill="white" fill-opacity="0.05"/>
<path d="M38.8908 365.185H24.158C22.5011 365.185 21.158 366.528 21.158 368.185V374.28C21.158 375.937 22.5011 377.28 24.158 377.28H38.8908C40.5476 377.28 41.8908 375.937 41.8908 374.28V368.185C41.8908 366.528 40.5476 365.185 38.8908 365.185Z" fill="white" fill-opacity="0.05"/>
<path d="M99.9662 102.185H59.3174C57.6605 102.185 56.3174 103.528 56.3174 105.185V111.28C56.3174 112.937 57.6605 114.28 59.3174 114.28H99.9662C101.623 114.28 102.966 112.937 102.966 111.28V105.185C102.966 103.528 101.623 102.185 99.9662 102.185Z" fill="white" fill-opacity="0.05"/>
<path d="M100.349 365.185H59.7C58.0431 365.185 56.7 366.528 56.7 368.185V374.28C56.7 375.937 58.0431 377.28 59.7 377.28H100.349C102.006 377.28 103.349 375.937 103.349 374.28V368.185C103.349 366.528 102.006 365.185 100.349 365.185Z" fill="white" fill-opacity="0.05"/>
<path d="M149.577 102.185H120.775C119.119 102.185 117.775 103.528 117.775 105.185V111.28C117.775 112.937 119.119 114.28 120.775 114.28H149.577C151.234 114.28 152.577 112.937 152.577 111.28V105.185C152.577 103.528 151.234 102.185 149.577 102.185Z" fill="white" fill-opacity="0.05"/>
<path d="M149.96 365.185H121.158C119.501 365.185 118.158 366.528 118.158 368.185V374.28C118.158 375.937 119.501 377.28 121.158 377.28H149.96C151.616 377.28 152.96 375.937 152.96 374.28V368.185C152.96 366.528 151.616 365.185 149.96 365.185Z" fill="white" fill-opacity="0.05"/>
<path d="M38.5081 247.322H23.7754C22.1185 247.322 20.7754 248.665 20.7754 250.322V256.417C20.7754 258.074 22.1185 259.417 23.7754 259.417H38.5081C40.165 259.417 41.5081 258.074 41.5081 256.417V250.322C41.5081 248.665 40.165 247.322 38.5081 247.322Z" fill="white" fill-opacity="0.05"/>
<path d="M99.9662 247.322H59.3174C57.6605 247.322 56.3174 248.665 56.3174 250.322V256.417C56.3174 258.074 57.6605 259.417 59.3174 259.417H99.9662C101.623 259.417 102.966 258.074 102.966 256.417V250.322C102.966 248.665 101.623 247.322 99.9662 247.322Z" fill="white" fill-opacity="0.05"/>
<path d="M149.577 247.322H120.775C119.119 247.322 117.775 248.665 117.775 250.322V256.417C117.775 258.074 119.119 259.417 120.775 259.417H149.577C151.234 259.417 152.577 258.074 152.577 256.417V250.322C152.577 248.665 151.234 247.322 149.577 247.322Z" fill="white" fill-opacity="0.05"/>
<path d="M220.803 28.001C223.207 28.001 225.13 30.001 225.13 32.501C225.13 35.001 223.207 37.001 220.803 37.001C218.399 37.001 216.476 35.001 216.476 32.501C216.476 30.001 218.399 28.001 220.803 28.001Z" fill="#6016FC"/>
<path d="M223.63 31.501C223.63 29.7734 222.324 28.501 220.803 28.501V25.501C224.09 25.501 226.63 28.2286 226.63 31.501H223.63ZM220.803 28.501C219.283 28.501 217.976 29.7734 217.976 31.501H214.976C214.976 28.2286 217.516 25.501 220.803 25.501V28.501ZM217.976 31.501C217.976 33.2286 219.283 34.501 220.803 34.501V37.501C217.516 37.501 214.976 34.7734 214.976 31.501H217.976ZM220.803 34.501C222.324 34.501 223.63 33.2286 223.63 31.501H226.63C226.63 34.7734 224.09 37.501 220.803 37.501V34.501ZM216.476 33.001H106.676V30.001H216.476V33.001ZM88.1764 51.5009V52.9999H85.1764V51.5009H88.1764ZM106.676 33.001C96.4584 33.001 88.1764 41.2837 88.1764 51.5009H85.1764C85.1764 39.6269 94.8014 30.001 106.676 30.001V33.001Z" fill="#222234"/>
<path d="M204.522 247.932C206.926 247.932 208.849 249.932 208.849 252.432C208.849 254.932 206.926 256.932 204.522 256.932C202.118 256.932 200.195 254.932 200.195 252.432C200.195 249.932 202.118 247.932 204.522 247.932Z" fill="#6016FC"/>
<path d="M204.788 279.5C207.192 279.5 209.115 277.5 209.115 275C209.115 272.5 207.192 270.5 204.788 270.5C202.384 270.5 200.461 272.5 200.461 275C200.461 277.5 202.384 279.5 204.788 279.5Z" fill="#6016FC"/>
<path d="M207.349 252.432C207.349 250.704 206.042 249.432 204.522 249.432V246.432C207.809 246.432 210.349 249.159 210.349 252.432H207.349ZM204.522 249.432C203.001 249.432 201.695 250.704 201.695 252.432H198.695C198.695 249.159 201.235 246.432 204.522 246.432V249.432ZM201.695 252.432C201.695 254.159 203.001 255.432 204.522 255.432V258.432C201.235 258.432 198.695 255.704 198.695 252.432H201.695ZM204.522 255.432C206.042 255.432 207.349 254.159 207.349 252.432H210.349C210.349 255.704 207.809 258.432 204.522 258.432V255.432ZM187.128 240.865V182.181H190.128V240.865H187.128ZM187.128 182.181C187.128 174.232 180.684 167.787 172.734 167.787V164.787C182.341 164.787 190.128 172.575 190.128 182.181H187.128ZM200.195 253.932C192.978 253.932 187.128 248.081 187.128 240.865H190.128C190.128 246.425 194.635 250.932 200.195 250.932V253.932Z" fill="#222234"/>
<path d="M207.615 275C207.615 276.728 206.308 278 204.788 278V281C208.075 281 210.615 278.273 210.615 275H207.615ZM204.788 278C203.267 278 201.961 276.728 201.961 275H198.961C198.961 278.273 201.501 281 204.788 281V278ZM201.961 275C201.961 273.273 203.267 272 204.788 272V269C201.501 269 198.961 271.728 198.961 275H201.961ZM204.788 272C206.308 272 207.615 273.273 207.615 275H210.615C210.615 271.728 208.075 269 204.788 269V272ZM187.394 286.567V345.251H190.394V286.567H187.394ZM187.394 345.251C187.394 353.2 180.95 359.645 173 359.645V362.645C182.607 362.645 190.394 354.857 190.394 345.251H187.394ZM200.461 273.5C193.244 273.5 187.394 279.351 187.394 286.567H190.394C190.394 281.007 194.901 276.5 200.461 276.5V273.5Z" fill="#222234"/>
</g>
<defs>
<clipPath id="clip0_5_39">
<rect width="393" height="387" fill="white"/>
</clipPath>
</defs>
</svg>
