<svg width="1440" height="5463" viewBox="0 0 1440 5463" fill="none" xmlns="http://www.w3.org/2000/svg">
<g clip-path="url(#clip0_2_12)">
<path d="M416.243 2943.23C533.782 2972.82 604.572 3090.14 574.356 3205.27C544.141 3320.4 424.362 3389.74 306.823 3360.14C189.284 3330.55 118.495 3213.22 148.71 3098.1C178.926 2982.97 298.704 2913.63 416.243 2943.23Z" fill="#FCA016"/>
<path d="M634.806 3189.17C730.301 3213.22 787.814 3308.54 763.265 3402.07C738.717 3495.61 641.403 3551.94 545.908 3527.89C450.414 3503.85 392.901 3408.53 417.449 3315C441.998 3221.46 539.312 3165.13 634.806 3189.17Z" fill="#16FCD2"/>
<path d="M954.243 2305.59C1071.78 2335.18 1142.57 2452.5 1112.36 2567.63C1082.14 2682.76 962.362 2752.1 844.823 2722.5C727.284 2692.91 656.495 2575.58 686.71 2460.46C716.926 2345.33 836.704 2275.99 954.243 2305.59Z" fill="#FC165B"/>
<path d="M211.243 1214.59C328.782 1244.18 399.572 1361.5 369.356 1476.63C339.141 1591.76 219.362 1661.1 101.823 1631.5C-15.7158 1601.91 -86.5055 1484.58 -56.2899 1369.46C-26.0744 1254.33 93.7043 1184.99 211.243 1214.59Z" fill="#16FCD2"/>
<path d="M1172.81 2551.52C1268.3 2575.57 1325.82 2670.89 1301.27 2764.42C1276.72 2857.96 1179.41 2914.29 1083.91 2890.24C988.417 2866.2 930.904 2770.88 955.452 2677.35C980.001 2583.81 1077.31 2527.48 1172.81 2551.52Z" fill="#6016FC"/>
<path d="M429.809 1460.52C525.304 1484.57 582.817 1579.89 558.268 1673.42C533.72 1766.96 436.406 1823.29 340.911 1799.24C245.417 1775.2 187.904 1679.88 212.452 1586.35C237.001 1492.81 334.315 1436.48 429.809 1460.52Z" fill="#FCA016"/>
<path d="M1107.96 4714.49C1225.5 4684.9 1296.29 4567.58 1266.07 4452.45C1235.86 4337.32 1116.08 4267.98 998.54 4297.58C881.001 4327.18 810.211 4444.5 840.427 4559.63C870.642 4674.75 990.421 4744.09 1107.96 4714.49Z" fill="#16FCD2"/>
<path d="M380.806 4598.26C476.301 4574.21 533.814 4478.9 509.265 4385.36C484.717 4291.83 387.403 4235.49 291.908 4259.54C196.414 4283.58 138.9 4378.9 163.449 4472.43C187.997 4565.97 285.312 4622.3 380.806 4598.26Z" fill="#6016FC"/>
<path d="M705 -791.34C714.282 -796.699 725.718 -796.699 735 -791.34L1397.82 -408.66C1407.1 -403.301 1412.82 -393.397 1412.82 -382.679V382.68C1412.82 393.397 1407.1 403.301 1397.82 408.66L735 791.34C725.718 796.699 714.282 796.699 705 791.34L42.1797 408.66C32.8976 403.301 27.1797 393.397 27.1797 382.679V-382.68C27.1797 -393.397 32.8977 -403.301 42.1797 -408.66L705 -791.34Z" fill="#FCA016"/>
<path d="M705 -641.34C714.282 -646.699 725.718 -646.699 735 -641.34L1267.92 -333.66C1277.2 -328.301 1282.92 -318.397 1282.92 -307.679V307.68C1282.92 318.397 1277.2 328.301 1267.92 333.66L735 641.34C725.718 646.699 714.282 646.699 705 641.34L172.083 333.66C162.801 328.301 157.083 318.397 157.083 307.679V-307.68C157.083 -318.397 162.801 -328.301 172.083 -333.66L705 -641.34Z" fill="#16FCD2"/>
<path d="M705 -441.34C714.282 -446.699 725.718 -446.699 735 -441.34L1094.71 -233.66C1103.99 -228.301 1109.71 -218.397 1109.71 -207.679V207.68C1109.71 218.397 1103.99 228.301 1094.71 233.66L735 441.34C725.718 446.699 714.282 446.699 705 441.34L345.289 233.66C336.007 228.301 330.289 218.397 330.289 207.679V-207.68C330.289 -218.397 336.007 -228.301 345.289 -233.66L705 -441.34Z" fill="#6016FC"/>
<path d="M705 4976.66C714.282 4971.3 725.718 4971.3 735 4976.66L1397.82 5359.34C1407.1 5364.7 1412.82 5374.6 1412.82 5385.32V6150.68C1412.82 6161.4 1407.1 6171.3 1397.82 6176.66L735 6559.34C725.718 6564.7 714.282 6564.7 705 6559.34L42.1797 6176.66C32.8976 6171.3 27.1797 6161.4 27.1797 6150.68V5385.32C27.1797 5374.6 32.8977 5364.7 42.1797 5359.34L705 4976.66Z" fill="#FCA016"/>
<path d="M705 5126.66C714.282 5121.3 725.718 5121.3 735 5126.66L1267.92 5434.34C1277.2 5439.7 1282.92 5449.6 1282.92 5460.32V6075.68C1282.92 6086.4 1277.2 6096.3 1267.92 6101.66L735 6409.34C725.718 6414.7 714.282 6414.7 705 6409.34L172.083 6101.66C162.801 6096.3 157.083 6086.4 157.083 6075.68V5460.32C157.083 5449.6 162.801 5439.7 172.083 5434.34L705 5126.66Z" fill="#16FCD2"/>
<path d="M705 5326.66C714.282 5321.3 725.718 5321.3 735 5326.66L1094.71 5534.34C1103.99 5539.7 1109.71 5549.6 1109.71 5560.32V5975.68C1109.71 5986.4 1103.99 5996.3 1094.71 6001.66L735 6209.34C725.718 6214.7 714.282 6214.7 705 6209.34L345.289 6001.66C336.007 5996.3 330.289 5986.4 330.289 5975.68V5560.32C330.289 5549.6 336.007 5539.7 345.289 5534.34L705 5326.66Z" fill="#6016FC"/>
</g>
<defs>
<clipPath id="clip0_2_12">
<rect width="1440" height="5463" fill="white"/>
</clipPath>
</defs>
</svg>
